<?xml version="1.0" standalone="no"?>
<!DOCTYPE svg PUBLIC "-//W3C//DTD SVG 20010904//EN"
 "http://www.w3.org/TR/2001/REC-SVG-20010904/DTD/svg10.dtd">
<svg version="1.0" xmlns="http://www.w3.org/2000/svg"
 width="1110.000000pt" height="880.000000pt" viewBox="0 0 1110.000000 880.000000"
 preserveAspectRatio="xMidYMid meet">

<g transform="translate(0.000000,880.000000) scale(0.100000,-0.100000)"
fill="#000000" stroke="none">
<path d="M0 4400 l0 -4400 5550 0 5550 0 0 4400 0 4400 -5550 0 -5550 0 0
-4400z m5689 2267 c1 -41 -13 -77 -35 -90 -47 -27 23 -65 88 -49 23 6 45 9 47
6 11 -11 -36 -80 -67 -99 -31 -19 -32 -22 -26 -70 3 -27 13 -81 21 -120 13
-61 21 -76 63 -116 131 -128 338 -151 467 -53 19 14 36 24 39 22 6 -6 -29
-105 -55 -156 -28 -55 -27 -71 4 -42 103 97 156 266 124 395 -22 88 -102 117
-125 45 l-11 -35 -37 37 c-84 84 -15 188 126 188 41 0 68 -8 123 -37 156 -81
192 -96 272 -111 155 -30 290 7 444 120 41 30 107 74 147 97 76 45 220 101
261 101 22 0 17 -7 -40 -63 -53 -52 -75 -83 -118 -172 -29 -60 -72 -137 -96
-171 -119 -166 -287 -256 -505 -270 -55 -4 -97 -10 -95 -15 10 -15 145 -39
222 -39 136 0 270 47 375 133 32 26 60 47 62 47 11 0 -30 -123 -61 -183 -45
-85 -139 -174 -228 -217 -36 -17 -112 -43 -168 -57 -94 -23 -113 -25 -242 -19
-77 3 -166 9 -199 13 -80 8 -72 -12 20 -50 213 -88 452 -90 616 -7 32 16 58
27 58 24 0 -17 -78 -120 -118 -155 -111 -98 -228 -136 -391 -126 -110 7 -185
26 -379 98 -165 61 -230 71 -289 41 -45 -24 -111 -94 -119 -129 l-6 -23 -303
0 -302 0 -27 59 c-32 72 -66 201 -66 250 0 62 26 136 84 242 31 56 56 107 56
113 0 5 -21 -10 -46 -34 -106 -104 -165 -237 -167 -376 l-2 -82 -55 -5 c-31
-3 -124 -30 -210 -62 -85 -31 -193 -65 -240 -76 -209 -46 -389 -7 -515 112
-47 45 -115 134 -115 152 0 3 26 -8 58 -24 170 -86 421 -78 646 22 66 29 59
43 -16 35 -35 -3 -124 -9 -198 -12 -117 -5 -147 -3 -223 15 -189 45 -310 117
-385 230 -41 61 -73 136 -87 200 l-7 34 58 -46 c118 -92 244 -137 387 -137 79
0 217 25 217 39 0 5 -40 11 -88 14 -282 18 -458 142 -594 417 -51 103 -74 137
-130 194 l-68 68 47 -7 c104 -15 241 -84 402 -203 92 -69 163 -99 272 -115
129 -18 234 11 433 120 99 55 233 37 271 -37 23 -44 19 -66 -21 -110 -43 -47
-52 -49 -56 -14 -6 56 -75 58 -103 4 -61 -119 -25 -298 86 -420 45 -50 46 -41
5 57 -15 34 -29 76 -33 93 l-6 32 41 -30 c97 -70 242 -79 358 -22 93 45 146
97 167 162 40 129 7 228 -77 228 -41 0 -66 -33 -66 -85 0 -25 -4 -45 -9 -45
-21 0 -60 63 -67 105 -25 171 125 293 308 251 85 -20 133 -9 173 38 34 39 43
32 44 -37z m-3927 -3422 c57 -38 71 -74 76 -195 5 -119 -6 -175 -44 -220 -38
-45 -75 -60 -145 -60 -74 0 -129 27 -162 80 -19 30 -23 53 -26 153 -5 168 22
228 116 263 53 20 138 10 185 -21z m6786 8 c45 -22 71 -57 79 -106 l6 -37 -47
0 c-43 0 -47 2 -60 34 -29 69 -146 71 -154 3 -5 -40 9 -52 105 -89 47 -18 101
-47 119 -64 29 -27 34 -38 34 -79 0 -96 -60 -145 -177 -145 -95 1 -147 26
-173 82 -26 58 -25 76 5 84 38 9 75 -3 75 -25 0 -30 47 -61 91 -61 51 0 69 8
80 37 14 37 -3 58 -68 83 -179 71 -221 124 -179 225 33 78 165 107 264 58z
m987 1 c43 -20 74 -62 82 -109 l6 -35 -50 0 c-48 0 -51 1 -57 30 -7 36 -60 64
-101 54 -52 -13 -65 -46 -65 -166 0 -149 16 -178 96 -178 45 0 74 29 74 74 0
34 -1 35 -42 38 -42 3 -43 4 -46 41 l-3 37 96 0 97 0 -3 -84 c-4 -94 -18 -122
-80 -164 -30 -21 -44 -23 -109 -20 -85 3 -128 26 -157 81 -22 42 -31 239 -13
302 30 106 161 153 275 99z m1273 2 c41 -21 73 -60 82 -100 4 -19 5 -37 2 -40
-3 -4 -25 -6 -48 -6 -36 0 -44 4 -50 23 -10 35 -32 54 -69 61 -88 17 -131 -70
-52 -107 18 -9 62 -27 98 -42 91 -36 124 -72 124 -135 0 -91 -62 -140 -178
-140 -81 0 -123 16 -160 60 -22 25 -27 41 -25 69 3 34 5 36 41 39 35 3 39 1
52 -32 18 -43 41 -56 99 -56 37 0 48 4 62 25 23 36 14 58 -36 82 -184 88 -183
87 -203 126 -14 27 -17 47 -13 72 9 47 58 101 104 114 45 12 134 6 170 -13z
m-10287 -9 c92 -61 90 -191 -4 -261 -20 -15 -47 -21 -112 -24 l-85 -5 0 -93 0
-94 -50 0 -50 0 0 250 0 250 134 0 c122 0 136 -2 167 -23z m419 -82 l0 -105
80 0 79 0 3 103 3 102 48 3 47 3 0 -251 0 -251 -47 3 -48 3 -3 103 -3 102 -79
0 -79 0 -3 -102 -3 -103 -47 -3 -48 -3 0 250 0 251 50 0 50 0 0 -105z m1500
65 l0 -40 -120 0 -121 0 3 -62 3 -63 78 -3 c84 -3 95 -10 83 -57 -6 -24 -9
-25 -87 -25 l-80 0 3 -62 3 -63 118 -3 117 -3 0 -39 0 -40 -170 0 -170 0 0
250 0 250 170 0 170 0 0 -40z m446 -110 c49 -82 92 -150 97 -150 4 0 7 68 7
150 l0 150 50 0 50 0 -2 -247 -3 -248 -46 -3 -46 -3 -94 158 -94 157 -5 -154
-5 -155 -47 -3 -48 -3 0 250 0 251 49 0 49 0 88 -150z m572 -97 l-3 -248 -47
-3 -48 -3 0 250 0 251 50 0 50 0 -2 -247z m403 167 c24 -44 47 -80 51 -80 4 0
28 36 54 80 l46 80 49 0 c27 0 49 -3 49 -6 0 -4 -29 -57 -65 -119 -36 -61 -65
-117 -65 -123 0 -7 29 -63 65 -124 36 -62 65 -116 65 -120 0 -5 -22 -8 -49 -8
l-49 0 -43 77 c-24 42 -49 78 -54 80 -6 2 -30 -31 -54 -73 -24 -41 -49 -78
-56 -80 -7 -3 -31 -4 -54 -2 l-41 3 71 123 71 123 -58 102 c-32 56 -64 112
-72 125 -14 22 -14 22 40 22 l55 0 44 -80z m928 -12 c11 -51 26 -117 33 -145
6 -29 14 -50 17 -47 3 3 20 67 37 142 l31 137 54 0 54 0 34 -143 c18 -78 36
-141 39 -138 2 3 19 67 36 143 l32 138 51 3 51 3 -13 -53 c-7 -29 -34 -142
-60 -251 l-48 -198 -51 3 -51 3 -35 147 c-19 81 -38 149 -41 152 -3 3 -21 -64
-39 -149 l-33 -155 -47 0 -47 0 -42 163 c-23 89 -53 201 -66 250 l-24 87 53 0
54 0 21 -92z m1059 55 l-3 -38 -122 -3 -123 -3 0 -64 0 -65 80 0 c87 0 98 -7
86 -55 -6 -24 -9 -25 -86 -25 l-80 0 0 -65 0 -64 123 -3 122 -3 0 -35 0 -35
-172 -3 -173 -2 0 250 0 250 176 0 175 0 -3 -37z m535 23 c43 -18 67 -46 74
-89 8 -49 -3 -84 -34 -113 l-26 -24 26 -20 c35 -28 51 -88 37 -138 -21 -79
-76 -102 -240 -102 l-120 0 0 250 0 250 125 0 c84 0 136 -5 158 -14z m955 -7
c70 -34 84 -77 80 -244 -3 -153 -12 -173 -89 -213 -39 -20 -56 -22 -159 -20
l-115 3 -3 248 -2 247 122 0 c104 0 128 -3 166 -21z m682 -19 l0 -40 -120 0
-121 0 3 -62 3 -63 78 -3 c84 -3 95 -10 83 -57 -6 -24 -9 -25 -87 -25 l-80 0
3 -62 3 -63 118 -3 117 -3 0 -39 0 -40 -170 0 -170 0 0 250 0 250 170 0 170 0
0 -40z m970 -211 l0 -250 -47 3 -48 3 -3 248 -2 247 50 0 50 0 0 -251z m1071
114 c45 -76 88 -145 95 -153 12 -12 14 9 14 138 l0 152 50 0 50 0 0 -250 0
-250 -48 0 -47 0 -95 158 -95 157 -3 -158 -3 -158 -47 3 -47 3 -3 248 -2 247
49 0 50 0 82 -137z m-7109 -673 c40 -11 53 -24 43 -40 -4 -6 -17 -4 -35 5 -61
31 -129 3 -117 -47 6 -21 20 -31 77 -53 93 -36 120 -78 88 -138 -25 -47 -87
-66 -154 -48 -55 15 -72 27 -58 41 9 9 20 8 42 -4 42 -22 84 -20 116 5 48 37
26 89 -45 109 -54 16 -98 47 -105 76 -10 38 14 76 56 91 44 15 47 15 92 3z
m1082 -19 c34 -30 49 -74 49 -141 0 -97 -37 -156 -104 -166 -43 -6 -77 12
-106 55 -30 44 -32 157 -5 211 32 64 116 85 166 41z m549 7 c32 -17 4 -33 -32
-19 -44 19 -89 5 -112 -32 -14 -24 -19 -51 -19 -105 0 -68 2 -76 29 -103 31
-30 67 -37 102 -19 15 8 19 21 19 60 0 47 -1 49 -32 52 -17 2 -33 9 -36 16 -3
8 12 12 52 12 l56 0 0 -75 c0 -88 -10 -98 -102 -99 -50 -1 -61 3 -87 28 -21
20 -34 45 -41 83 -21 97 15 182 90 212 27 11 83 6 113 -11z m-1183 -133 l0
-144 73 -3 c102 -4 86 -22 -23 -26 l-90 -3 0 161 c0 153 1 160 20 160 19 0 20
-7 20 -145z m1700 -10 c28 -82 50 -153 50 -157 0 -5 -8 -8 -18 -8 -13 0 -22
12 -31 40 l-12 40 -68 0 -69 0 -9 -37 c-6 -28 -15 -39 -30 -41 -21 -3 -20 3
28 145 27 81 51 154 54 161 3 8 16 12 31 10 23 -3 29 -15 74 -153z m461 23
l54 -133 3 133 c2 124 4 132 22 132 19 0 20 -7 20 -161 l0 -160 -32 3 c-31 3
-34 7 -83 130 -27 71 -52 128 -55 128 -3 0 -4 -58 -2 -130 4 -127 4 -130 -17
-130 -21 0 -21 4 -21 160 l0 160 28 0 c27 0 31 -7 83 -132z m989 67 l0 -66 63
3 62 3 3 63 c2 46 7 62 17 62 13 0 15 -27 15 -160 0 -134 -2 -160 -15 -160
-11 0 -15 18 -17 78 l-3 77 -62 3 -63 3 0 -81 c0 -73 -2 -80 -20 -80 -19 0
-20 7 -20 160 0 153 1 160 20 160 18 0 20 -7 20 -65z m688 53 c-3 -8 -29 -14
-71 -16 l-67 -3 0 -54 0 -54 57 -3 c81 -4 85 -28 4 -28 l-61 0 0 -60 0 -59 72
-3 c46 -2 73 -7 76 -15 3 -10 -20 -13 -92 -13 l-96 0 0 160 0 160 91 0 c68 0
90 -3 87 -12z m516 -17 c17 -16 26 -35 26 -56 0 -35 -33 -85 -56 -85 -23 0
-16 -24 26 -84 22 -31 40 -59 40 -61 0 -3 -9 -5 -20 -5 -14 0 -34 22 -65 71
-37 57 -50 70 -68 67 -20 -3 -22 -10 -25 -70 -2 -52 -6 -68 -17 -68 -13 0 -15
27 -15 161 l0 161 74 -4 c62 -3 79 -7 100 -27z m544 17 c-3 -8 -31 -15 -74
-18 l-69 -5 -3 -52 -3 -52 62 -3 c86 -4 91 -26 7 -30 l-63 -3 0 -55 0 -55 73
-3 c55 -2 72 -6 72 -17 0 -12 -18 -15 -90 -15 l-90 0 0 160 0 160 91 0 c68 0
90 -3 87 -12z"/>
<path d="M1623 3193 c-13 -2 -32 -16 -43 -30 -17 -22 -20 -40 -20 -135 0 -148
16 -178 95 -178 25 0 40 8 59 31 24 29 26 37 26 135 0 121 -12 156 -61 173
-18 6 -32 10 -33 10 -1 -1 -11 -4 -23 -6z"/>
<path d="M322 3118 l3 -73 63 0 c55 0 67 4 83 24 25 30 24 72 -1 99 -17 18
-32 22 -86 22 l-65 0 3 -72z"/>
<path d="M6202 3128 l3 -63 63 0 c71 0 92 15 92 65 0 43 -28 60 -99 60 l-62 0
3 -62z"/>
<path d="M6202 2918 l3 -63 57 -3 c51 -3 61 0 83 22 30 30 32 59 5 86 -16 16
-33 20 -85 20 l-66 0 3 -62z"/>
<path d="M7152 3023 l3 -168 44 -3 c55 -4 95 12 110 44 6 14 11 74 11 135 0
103 -1 111 -25 134 -20 21 -34 25 -85 25 l-60 0 2 -167z"/>
<path d="M3932 2433 c-26 -10 -42 -62 -42 -133 0 -74 16 -123 45 -134 80 -30
131 66 104 193 -14 67 -55 95 -107 74z"/>
<path d="M5015 2409 c-11 -32 -45 -145 -45 -151 0 -9 94 -11 102 -3 5 6 -38
154 -47 164 -3 2 -7 -2 -10 -10z"/>
<path d="M7610 2370 l0 -60 48 0 c56 0 82 20 82 63 0 40 -25 57 -81 57 l-49 0
0 -60z"/>
</g>
</svg>
